<svg width="17" height="16" viewBox="0 0 17 16" fill="none" xmlns="http://www.w3.org/2000/svg">
<path d="M7.52051 0.767838C7.74514 0.0772522 8.72253 0.07735 8.94727 0.767838L10.2061 4.64088C10.3734 5.15584 10.853 5.50416 11.3945 5.50417H15.4668C16.1931 5.50446 16.4949 6.4346 15.9072 6.86159L12.6133 9.25514C12.1752 9.57345 11.9918 10.1376 12.1592 10.6526L13.417 14.5247C13.6415 15.2157 12.8505 15.7906 12.2627 15.3635L8.96875 12.97C8.53065 12.6518 7.9371 12.6517 7.49902 12.97L4.20508 15.3635C3.6173 15.7905 2.82628 15.2156 3.05078 14.5247L4.30957 10.6526C4.47687 10.1377 4.29333 9.57349 3.85547 9.25514L0.560547 6.86159C-0.0270141 6.43448 0.275479 5.50417 1.00195 5.50417H5.07422C5.61555 5.50396 6.0954 5.15576 6.2627 4.64088L7.52051 0.767838Z" fill="#0088FF" stroke="white" stroke-width="0.5"/>
</svg>
