<svg width="26" height="26" viewBox="0 0 26 26" fill="none" xmlns="http://www.w3.org/2000/svg">
<rect x="1" y="9" width="24" height="15" rx="5" fill="#FFC080"/>
<path d="M8.68 6C8.68 7.65685 7.39058 9 5.8 9C4.20942 9 2.92 7.65685 2.92 6C2.92 4.34315 4.20942 3 5.8 3C7.39058 3 8.68 4.34315 8.68 6Z" fill="#FFC080"/>
<path d="M16.36 4.5C16.36 6.433 14.8557 8 13 8C11.1443 8 9.64 6.433 9.64 4.5C9.64 2.567 11.1443 1 13 1C14.8557 1 16.36 2.567 16.36 4.5Z" fill="#FFC080"/>
<path d="M7.60222 12C7.60222 11.0225 7.93882 10.1269 8.49786 9.43212C9.20226 8.55666 10.2598 8 11.4422 8H14.3222C15.5455 8 16.6352 8.59584 17.3384 9.52411C17.8543 10.2051 18.1622 11.0651 18.1622 12V21C18.1622 22.2347 17.6252 23.3388 16.7811 24.0725C16.115 24.6516 15.2577 25 14.3222 25H11.4422C10.561 25 9.74914 24.6908 9.10111 24.1709C8.18955 23.4395 7.60222 22.2912 7.60222 21V12Z" fill="#FFC080"/>
<path d="M23.08 6C23.08 7.65685 21.7906 9 20.2 9C18.6094 9 17.32 7.65685 17.32 6C17.32 4.34315 18.6094 3 20.2 3C21.7906 3 23.08 4.34315 23.08 6Z" fill="#FFC080"/>
<path d="M16.7811 24.0725C17.4472 24.6516 18.3046 24.5 19.24 24.5H21.16C23.2808 24.5 25 23.2091 25 21V13C25 10.7909 23.2808 9 21.16 9H19.24C18.5482 9 17.899 9.19059 17.3384 9.52411M17.3384 9.52411C16.6352 8.59584 15.5455 8 14.3222 8H11.4422C10.2598 8 9.20226 8.55666 8.49786 9.43212C7.93882 10.1269 7.60222 11.0225 7.60222 12V21C7.60222 22.2912 8.18955 23.4395 9.10111 24.1709C9.74913 24.6908 10.561 25 11.4422 25H14.3222C15.2577 25 16.115 24.6516 16.7811 24.0725C17.6252 23.3388 18.1622 22.2347 18.1622 21V12C18.1622 11.0651 17.8543 10.2051 17.3384 9.52411ZM8.49786 9.43212C7.97604 9.15578 7.38548 9 6.76 9H4.84C2.71923 9 1 10.7909 1 13V21C1 23.2091 2.71923 24.5 4.84 24.5C4.84 24.5 4.63923 24.5 6.76 24.5C7.64121 24.5 8.45309 24.6908 9.10111 24.1709M8.68 6C8.68 7.65685 7.39058 9 5.8 9C4.20942 9 2.92 7.65685 2.92 6C2.92 4.34315 4.20942 3 5.8 3C7.39058 3 8.68 4.34315 8.68 6ZM16.36 4.5C16.36 6.433 14.8557 8 13 8C11.1443 8 9.64 6.433 9.64 4.5C9.64 2.567 11.1443 1 13 1C14.8557 1 16.36 2.567 16.36 4.5ZM23.08 6C23.08 7.65685 21.7906 9 20.2 9C18.6094 9 17.32 7.65685 17.32 6C17.32 4.34315 18.6094 3 20.2 3C21.7906 3 23.08 4.34315 23.08 6Z" stroke="#FF8C14" stroke-width="2"/>
<ellipse cx="9.15999" cy="7.5" rx="0.48" ry="0.5" fill="#FFC080"/>
<mask id="path-5-inside-1_235_1635" fill="white">
<ellipse cx="16.36" cy="8" rx="0.96" ry="1"/>
</mask>
<ellipse cx="16.36" cy="8" rx="0.96" ry="1" fill="#FFC080"/>
<path d="M17.32 8H16.32C16.32 8.01339 16.3156 8.0165 16.3174 8.01458C16.3184 8.01358 16.3222 8.00992 16.3305 8.0063C16.3395 8.00231 16.3503 8 16.36 8V9V10C17.4806 10 18.32 9.0657 18.32 8H17.32ZM16.36 9V8C16.3697 8 16.3805 8.00231 16.3895 8.0063C16.3977 8.00992 16.4016 8.01358 16.4026 8.01458C16.4044 8.0165 16.4 8.01339 16.4 8H15.4H14.4C14.4 9.0657 15.2394 10 16.36 10V9ZM15.4 8H16.4C16.4 7.98661 16.4044 7.9835 16.4026 7.98543C16.4016 7.98642 16.3977 7.99008 16.3895 7.9937C16.3805 7.99769 16.3697 8 16.36 8V7V6C15.2394 6 14.4 6.9343 14.4 8H15.4ZM16.36 7V8C16.3503 8 16.3395 7.99769 16.3305 7.9937C16.3222 7.99008 16.3184 7.98642 16.3174 7.98543C16.3156 7.9835 16.32 7.98661 16.32 8H17.32H18.32C18.32 6.9343 17.4806 6 16.36 6V7Z" fill="#FF8C14" mask="url(#path-5-inside-1_235_1635)"/>
<path d="M9.16043 6.5C9.66036 6.50025 10.0999 6.92845 10.0999 7.5C10.0999 8.07155 9.66036 8.49975 9.16043 8.5C8.66032 8.5 8.22 8.07172 8.22 7.5C8.22 6.92828 8.66032 6.5 9.16043 6.5Z" fill="#FF8C14" stroke="#FF8C14"/>
</svg>
