<svg width="26" height="26" viewBox="0 0 26 26" fill="none" xmlns="http://www.w3.org/2000/svg">
<path d="M16.7811 24.0725C17.4472 24.6516 18.3046 24.5 19.24 24.5H21.16C23.2808 24.5 25 23.2091 25 21V13C25 10.7909 23.2808 9 21.16 9H19.24C18.5482 9 17.899 9.19059 17.3384 9.52411M17.3384 9.52411C16.6352 8.59584 15.5455 8 14.3222 8H11.4422C10.2598 8 9.20226 8.55666 8.49786 9.43212C7.93882 10.1269 7.60222 11.0225 7.60222 12V21C7.60222 22.2912 8.18955 23.4395 9.10111 24.1709C9.74913 24.6908 10.561 25 11.4422 25H14.3222C15.2577 25 16.115 24.6516 16.7811 24.0725C17.6252 23.3388 18.1622 22.2347 18.1622 21V12C18.1622 11.0651 17.8543 10.2051 17.3384 9.52411ZM8.49786 9.43212C7.97604 9.15578 7.38548 9 6.76 9H4.84C2.71923 9 1 10.7909 1 13V21C1 23.2091 2.71923 24.5 4.84 24.5C4.84 24.5 4.63923 24.5 6.76 24.5C7.64121 24.5 8.45309 24.6908 9.10111 24.1709M8.68 6C8.68 7.65685 7.39058 9 5.8 9C4.20942 9 2.92 7.65685 2.92 6C2.92 4.34315 4.20942 3 5.8 3C7.39058 3 8.68 4.34315 8.68 6ZM16.36 4.5C16.36 6.433 14.8557 8 13 8C11.1443 8 9.64 6.433 9.64 4.5C9.64 2.567 11.1443 1 13 1C14.8557 1 16.36 2.567 16.36 4.5ZM23.08 6C23.08 7.65685 21.7906 9 20.2 9C18.6094 9 17.32 7.65685 17.32 6C17.32 4.34315 18.6094 3 20.2 3C21.7906 3 23.08 4.34315 23.08 6Z" stroke="black" stroke-width="2"/>
<ellipse cx="9.15999" cy="7.5" rx="0.48" ry="0.5" fill="black"/>
<ellipse cx="16.36" cy="8" rx="0.96" ry="1" fill="black"/>
</svg>
