<svg width="26" height="26" viewBox="0 0 26 26" fill="none" xmlns="http://www.w3.org/2000/svg">
<path d="M25 10.2727V22.527C25 23.6315 24.1046 24.527 23 24.527H18.6C17.4954 24.527 16.6 23.6315 16.6 22.527V17.0481C16.6 16.4846 16.3623 15.9472 15.9453 15.5682L15.7337 15.3758C15.514 15.1761 15.2525 15.0278 14.9684 14.9416L13.58 14.5209C13.2018 14.4063 12.7982 14.4063 12.42 14.5209L11.0316 14.9416C10.7474 15.0278 10.486 15.1761 10.2663 15.3758L10.0546 15.5682C9.63769 15.9472 9.39998 16.4846 9.39998 17.0481V22.527C9.39998 23.6315 8.50455 24.527 7.39998 24.527H3C1.89543 24.527 1 23.6315 1 22.527V10.2727C1 9.63283 1.30617 9.03158 1.82366 8.65523L11.8236 1.3825C12.5249 0.872463 13.475 0.872463 14.1763 1.3825L24.1763 8.65523C24.6938 9.03158 25 9.63283 25 10.2727Z" stroke="black" stroke-width="2"/>
</svg>
